<?xml version="1.0" encoding="utf-8"?>
<!-- Generator: Adobe Illustrator 24.1.0, SVG Export Plug-In . SVG Version: 6.00 Build 0)  -->
<svg version="1.1" id="Capa_1" xmlns="http://www.w3.org/2000/svg" xmlns:xlink="http://www.w3.org/1999/xlink" x="0px" y="0px"
	 viewBox="0 0 724.5 724.5" style="enable-background:new 0 0 724.5 724.5;" xml:space="preserve">
<style type="text/css">
	.st0{fill:#FFFFFF;}
</style>
<g>
	<g>
		<g>
			<path class="st0" d="M604.5,395.2c-4.2-4.2-10.9-4.2-15.1,0L362.3,622.4L135.1,395.2c-4.2-4.2-10.9-4.2-15.1,0
				c-4.2,4.2-4.2,10.9,0,15.1L354.7,645c2.1,2.1,4.8,3.1,7.6,3.1c2.7,0,5.5-1,7.5-3.1l234.7-234.7
				C608.6,406.2,608.6,399.4,604.5,395.2z"/>
		</g>
	</g>
	<g>
		<g>
			<path class="st0" d="M604.5,203.2c-4.2-4.2-10.9-4.2-15.1,0L362.3,430.4L135.1,203.2c-4.2-4.2-10.9-4.2-15.1,0
				c-4.2,4.2-4.2,10.9,0,15.1L354.7,453c2.1,2.1,4.8,3.1,7.6,3.1c2.7,0,5.5-1,7.5-3.1l234.7-234.7
				C608.6,214.1,608.6,207.4,604.5,203.2z"/>
		</g>
	</g>
</g>
</svg>
