<?xml version="1.0" encoding="utf-8"?>
<!-- Generator: Adobe Illustrator 24.1.0, SVG Export Plug-In . SVG Version: 6.00 Build 0)  -->
<svg version="1.1" id="Layer_1" xmlns="http://www.w3.org/2000/svg" xmlns:xlink="http://www.w3.org/1999/xlink" x="0px" y="0px"
	 viewBox="0 0 512 512" style="enable-background:new 0 0 512 512;" xml:space="preserve">
<style type="text/css">
	.st0{fill:#FFFFFF;}
</style>
<path class="st0" d="M21.3,170.7c11.8,0,21.3-9.5,21.3-21.3V64c0-11.8,9.6-21.3,21.3-21.3h85.3c11.8,0,21.3-9.5,21.3-21.3
	S161.1,0,149.3,0H64C28.7,0,0,28.7,0,64v85.3C0,161.1,9.5,170.7,21.3,170.7z"/>
<path class="st0" d="M490.7,341.3c-11.8,0-21.3,9.5-21.3,21.3V448c0,11.8-9.6,21.3-21.3,21.3h-85.3c-11.8,0-21.3,9.5-21.3,21.3
	s9.5,21.3,21.3,21.3H448c35.3,0,64-28.7,64-64v-85.3C512,350.9,502.5,341.3,490.7,341.3z"/>
<path class="st0" d="M149.3,469.3H64c-11.8,0-21.3-9.6-21.3-21.3v-85.3c0-11.8-9.5-21.3-21.3-21.3S0,350.9,0,362.7V448
	c0,35.3,28.7,64,64,64h85.3c11.8,0,21.3-9.5,21.3-21.3S161.1,469.3,149.3,469.3z"/>
<path class="st0" d="M448,0h-85.3c-11.8,0-21.3,9.5-21.3,21.3s9.5,21.3,21.3,21.3H448c11.8,0,21.3,9.6,21.3,21.3v85.3
	c0,11.8,9.5,21.3,21.3,21.3s21.3-9.5,21.3-21.3V64C512,28.7,483.3,0,448,0z"/>
<path class="st0" d="M106.7,165.3v181.3c0,32.4,26.3,58.7,58.7,58.7h181.3c32.4,0,58.7-26.3,58.7-58.7V165.3
	c0-32.4-26.3-58.7-58.7-58.7H165.3C133,106.7,106.7,133,106.7,165.3z"/>
</svg>
