<?xml version="1.0" encoding="utf-8"?>
<!-- Generator: Adobe Illustrator 24.1.0, SVG Export Plug-In . SVG Version: 6.00 Build 0)  -->
<svg version="1.1" id="Layer_1" xmlns="http://www.w3.org/2000/svg" xmlns:xlink="http://www.w3.org/1999/xlink" x="0px" y="0px"
	 viewBox="0 0 494.5 494.5" style="enable-background:new 0 0 494.5 494.5;" xml:space="preserve">
<style type="text/css">
	.st0{fill:#FFFFFF;}
</style>
<g>
	<g>
		<path class="st0" d="M214.7,217.5L45.2,100.6C38,95.7,30.5,93,24,93C9.7,93,0,105.3,0,124.4v245.7c0,19,9.7,31.3,24,31.3
			c6.5,0,14-2.6,21.2-7.6L214.8,277c11.3-7.8,17.5-18.4,17.5-29.7C232.3,235.9,226,225.3,214.7,217.5z"/>
	</g>
</g>
<g>
	<g>
		<path class="st0" d="M476.9,217.5L307.4,100.6c-7.2-5-14.7-7.6-21.2-7.6c-14.3,0-24,12.3-24,31.3v245.7c0,19,9.7,31.3,24,31.3
			c6.5,0,14-2.6,21.2-7.6L477,277c11.3-7.8,17.5-18.4,17.5-29.7C494.5,235.9,488.2,225.3,476.9,217.5z"/>
	</g>
</g>
</svg>
