<?xml version="1.0" encoding="utf-8"?>
<!-- Generator: Adobe Illustrator 24.1.0, SVG Export Plug-In . SVG Version: 6.00 Build 0)  -->
<svg version="1.1" id="Layer_1" xmlns="http://www.w3.org/2000/svg" xmlns:xlink="http://www.w3.org/1999/xlink" x="0px" y="0px"
	 viewBox="0 0 493.5 493.5" style="enable-background:new 0 0 493.5 493.5;" xml:space="preserve">
<style type="text/css">
	.st0{fill:#FFFFFF;}
</style>
<g>
	<g>
		<path class="st0" d="M178.1,0l-12,0.2c-14.9,0-27.2,12.1-27.2,27v439.7c0,14.9,13.4,26.6,28.3,26.6h0.1l11-0.1
			c14.9,0,26.2-11.9,26.2-26.8V27C204.4,12.1,193,0,178.1,0z"/>
	</g>
</g>
<g>
	<g>
		<path class="st0" d="M328.6,0l-12.1,0.2c-14.9,0-27.3,12.1-27.3,27v439.7c0,14.9,13.7,26.6,28.6,26.6h0.1l10.8-0.1
			c14.9,0,26.1-11.9,26.1-26.8V27C354.7,12.1,343.5,0,328.6,0z"/>
	</g>
</g>
</svg>
