<?xml version="1.0" encoding="utf-8"?>
<!-- Generator: Adobe Illustrator 24.1.0, SVG Export Plug-In . SVG Version: 6.00 Build 0)  -->
<svg version="1.1" id="subtitles" xmlns="http://www.w3.org/2000/svg" xmlns:xlink="http://www.w3.org/1999/xlink" x="0px" y="0px"
	 viewBox="0 0 512 512" style="enable-background:new 0 0 512 512;" xml:space="preserve">
<style type="text/css">
	.st0{fill:#FFFFFF;}
	.st1{display:none;fill:#5C128D;}
</style>
<path class="st0" d="M392.5,385.7H119.5c-30.2,0-54.6-24.5-54.6-54.6V180.9c0-30.2,24.5-54.6,54.6-54.6h273.1
	c30.2,0,54.6,24.5,54.6,54.6v150.2C447.1,361.3,422.7,385.7,392.5,385.7z"/>
<g>
	<path class="st1" d="M392.5,399.4H119.5c-37.6,0-68.3-30.6-68.3-68.3V180.9c0-37.6,30.6-68.3,68.3-68.3h273.1
		c37.6,0,68.3,30.6,68.3,68.3v150.2C460.8,368.7,430.2,399.4,392.5,399.4z M119.5,139.9c-22.6,0-41,18.4-41,41v150.2
		c0,22.6,18.4,41,41,41h273.1c22.6,0,41-18.4,41-41V180.9c0-22.6-18.4-41-41-41H119.5z"/>
	<path d="M242.3,331.1h-42.1c-29.5,0-53.5-24-53.5-53.5v-43.2c0-29.5,24-53.5,53.5-53.5h42.1v27.3h-42.1
		c-14.4,0-26.2,11.7-26.2,26.2v43.2c0,14.4,11.7,26.2,26.2,26.2h42.1V331.1z"/>
	<path d="M365.2,331.1h-42.1c-29.5,0-53.5-24-53.5-53.5v-43.2c0-29.5,24-53.5,53.5-53.5h42.1v27.3h-42.1
		c-14.4,0-26.2,11.7-26.2,26.2v43.2c0,14.4,11.7,26.2,26.2,26.2h42.1V331.1z"/>
</g>
</svg>
